<svg width="25" height="24" viewBox="0 0 25 24" fill="none" xmlns="http://www.w3.org/2000/svg">
<path d="M12.4546 17L13.4546 15V9.858C15.1756 9.411 16.4546 7.858 16.4546 6C16.4546 3.794 14.6606 2 12.4546 2C10.2486 2 8.45459 3.794 8.45459 6C8.45459 7.858 9.73359 9.411 11.4546 9.858V15L12.4546 17Z" fill="black"/>
<path d="M16.7216 10.563L16.1886 12.491C18.7796 13.207 20.4546 14.584 20.4546 16C20.4546 17.892 17.1696 20 12.4546 20C7.73959 20 4.45459 17.892 4.45459 16C4.45459 14.584 6.12959 13.207 8.72159 12.49L8.18859 10.562C4.65159 11.54 2.45459 13.623 2.45459 16C2.45459 19.364 6.84759 22 12.4546 22C18.0616 22 22.4546 19.364 22.4546 16C22.4546 13.623 20.2576 11.54 16.7216 10.563Z" fill="black"/>
</svg>
