<svg width="20" height="20" viewBox="0 0 20 20" fill="none" xmlns="http://www.w3.org/2000/svg">
<path d="M18 12.185V9.816C18.5832 9.61029 19.0884 9.22924 19.4465 8.72509C19.8045 8.22093 19.9979 7.61836 20 7C20 5.346 18.654 4 17 4C16.607 3.9998 16.2179 4.07707 15.8548 4.22738C15.4917 4.37769 15.1618 4.5981 14.884 4.876L10.969 3.31C10.979 3.207 11 3.106 11 3C11 1.346 9.654 0 8 0C6.346 0 5 1.346 5 3C5 3.762 5.295 4.451 5.765 4.981L4.091 7.212C3.74387 7.07347 3.37375 7.00155 3 7C1.346 7 0 8.346 0 10C0 11.654 1.346 13 3 13C3.159 13 3.313 12.977 3.465 12.953L5.4 15.532C5.152 15.968 5 16.464 5 17C5 18.654 6.346 20 8 20C8.64555 19.9977 9.27307 19.7869 9.78901 19.3989C10.305 19.0109 10.6817 18.4666 10.863 17.847L14.825 17.055C15.1038 17.3527 15.4406 17.5901 15.8147 17.7526C16.1888 17.9151 16.5922 17.9993 17 18C18.654 18 20 16.654 20 15C19.998 14.3817 19.8046 13.7793 19.4465 13.2752C19.0884 12.7712 18.5832 12.3904 18 12.185ZM17 6C17.1981 5.9998 17.3917 6.05837 17.5565 6.16828C17.7213 6.2782 17.8497 6.43452 17.9256 6.61747C18.0015 6.80042 18.0214 7.00177 17.9828 7.19604C17.9442 7.39031 17.8489 7.56876 17.7088 7.70881C17.5688 7.84887 17.3903 7.94422 17.196 7.98281C17.0018 8.02141 16.8004 8.0015 16.6175 7.92561C16.4345 7.84972 16.2782 7.72127 16.1683 7.5565C16.0584 7.39173 15.9998 7.19806 16 7C16 6.449 16.448 6 17 6ZM8 2C8.19806 1.9998 8.39174 2.05837 8.5565 2.16828C8.72127 2.2782 8.84972 2.43452 8.92561 2.61747C9.0015 2.80042 9.02141 3.00177 8.98281 3.19604C8.94422 3.39031 8.84887 3.56876 8.70881 3.70881C8.56876 3.84887 8.39031 3.94422 8.19604 3.98281C8.00177 4.02141 7.80042 4.0015 7.61747 3.92561C7.43452 3.84972 7.2782 3.72127 7.16828 3.5565C7.05837 3.39174 6.9998 3.19806 7 3C7 2.449 7.448 2 8 2ZM2 10C1.9998 9.80194 2.05837 9.60826 2.16828 9.4435C2.2782 9.27873 2.43452 9.15028 2.61747 9.07439C2.80042 8.9985 3.00177 8.97859 3.19604 9.01719C3.39031 9.05578 3.56876 9.15113 3.70881 9.29119C3.84887 9.43124 3.94422 9.60969 3.98281 9.80396C4.02141 9.99823 4.0015 10.1996 3.92561 10.3825C3.84972 10.5655 3.72127 10.7218 3.5565 10.8317C3.39174 10.9416 3.19806 11.0002 3 11C2.448 11 2 10.551 2 10ZM8 18C7.73478 18 7.48043 17.8946 7.29289 17.7071C7.10536 17.5196 7 17.2652 7 17C7 16.7348 7.10536 16.4804 7.29289 16.2929C7.48043 16.1054 7.73478 16 8 16C8.26522 16 8.51957 16.1054 8.70711 16.2929C8.89464 16.4804 9 16.7348 9 17C9 17.2652 8.89464 17.5196 8.70711 17.7071C8.51957 17.8946 8.26522 18 8 18ZM10.761 15.828C10.5304 15.2864 10.1458 14.8244 9.655 14.4994C9.16416 14.1744 8.58867 14.0008 8 14C7.614 14 7.248 14.079 6.909 14.213L5.235 11.982C5.705 11.451 6 10.762 6 10C6 9.464 5.848 8.968 5.601 8.533L7.536 5.953C7.688 5.977 7.841 6 8 6C8.39296 6.0002 8.78211 5.92293 9.14519 5.77262C9.50828 5.62231 9.83817 5.4019 10.116 5.124L14.031 6.69C14.021 6.793 14 6.894 14 7C14 8.302 14.839 9.401 16 9.815V12.184C15.4169 12.3895 14.9117 12.7704 14.5536 13.2744C14.1956 13.7784 14.0022 14.3808 14 14.999C14 15.06 14.015 15.116 14.018 15.176L10.761 15.828ZM17 16C16.7348 16 16.4804 15.8946 16.2929 15.7071C16.1054 15.5196 16 15.2652 16 15C16 14.7348 16.1054 14.4804 16.2929 14.2929C16.4804 14.1054 16.7348 14 17 14C17.2652 14 17.5196 14.1054 17.7071 14.2929C17.8946 14.4804 18 14.7348 18 15C18 15.2652 17.8946 15.5196 17.7071 15.7071C17.5196 15.8946 17.2652 16 17 16Z" fill="black"/>
</svg>
