<svg width="24" height="24" viewBox="0 0 24 24" fill="none" xmlns="http://www.w3.org/2000/svg">
    <g clip-path="url(#clip0_54_183)">
    <path d="M14.77 1.42197L1.57918 13.299C0.708217 14.0833 0.60021 15.3875 1.33826 16.2072L5.35305 20.6661C6.0911 21.4858 7.39952 21.5147 8.27049 20.7305L21.4613 8.85342C22.3323 8.0692 22.4403 6.76492 21.7022 5.94523L17.6874 1.48636C16.9494 0.666673 15.641 0.637753 14.77 1.42197ZM20.123 7.36713L6.93223 19.2442C6.88987 19.2823 6.85018 19.2965 6.83755 19.3079C6.83235 19.3126 6.83071 19.3168 6.83398 19.3219L2.84641 14.9112C2.84492 14.8991 2.85428 14.8422 2.91744 14.7853L4.31084 13.5307L6.31823 15.7601L7.80452 14.4219L5.79713 12.1925L7.28342 10.8542L9.95994 13.8268L11.4462 12.4885L8.76971 9.51593L10.256 8.17767L12.2634 10.4071L13.7497 9.06884L11.7423 6.83941L13.2286 5.50115L15.9051 8.47373L17.3914 7.13546L14.7149 4.16288L16.1083 2.90826C16.1676 2.85615 16.2177 2.84744 16.2065 2.83057L20.1941 7.24128C20.1956 7.25339 20.1862 7.31026 20.123 7.36713Z" fill="black"/>
    </g>
    <defs>
    <clipPath id="clip0_54_183">
    <rect width="24" height="24" fill="white"/>
    </clipPath>
    </defs>
    </svg>
    